<svg width="865" height="810" viewBox="0 0 865 810" fill="none" xmlns="http://www.w3.org/2000/svg">
<path d="M0.992188 -78.7233L0.992231 973.903M73.9498 -78.7233L73.9499 973.903M146.907 -78.7233L146.908 973.903M219.865 -78.7233L219.865 973.903M292.823 -78.7233L292.823 973.903M365.78 -78.7233L365.78 973.903M438.738 -78.7233L438.738 973.903M511.696 -78.7233L511.696 973.903M584.653 -78.7233L584.653 973.903M657.611 -78.7233C657.611 332.353 657.611 562.827 657.611 973.903M730.569 -78.7233L730.569 973.903M803.526 -78.7233L803.526 973.903M876.484 -78.7233L876.484 973.903M949.441 -78.7233L949.441 973.903M1022.4 -78.7233L1022.4 973.903M1020.73 -79.2979L1.54851 -79.2979M1020.73 -3.94612H1.54851M1020.73 71.4056H1.5485M1020.73 146.757H1.5485M1020.73 222.109H1.5485M1020.73 297.461H1.54849M1020.73 372.813H1.54849M1020.73 448.164H1.54849M1020.73 523.516H1.54848M1020.73 598.868H1.54848M1020.73 674.219H1.54848M1020.73 749.571H1.54847M1020.73 824.923H1.54847M1020.73 900.275H1.54847M1020.73 975.626H1.54846" stroke="url(#paint0_radial_6694_306)" stroke-opacity="0.7" stroke-width="1.98621"/>
<defs>
<radialGradient id="paint0_radial_6694_306" cx="0" cy="0" r="1" gradientUnits="userSpaceOnUse" gradientTransform="translate(511.696 448.164) rotate(90) scale(480.974 465.692)">
<stop stop-color="#E5E1DE"/>
<stop offset="1" stop-color="white" stop-opacity="0"/>
</radialGradient>
</defs>
</svg>
