<svg width="70" height="52" viewBox="0 0 70 52" fill="none" xmlns="http://www.w3.org/2000/svg">
<path d="M16.8614 23.7508L16.1274 7.68242L17.461 7.6237L18.1949 23.6922L16.8614 23.7508ZM47.8488 23.7215H46.5139V7.65304H47.8488V23.7215Z" fill="white"/>
<path d="M31.5566 50.5249C31.302 49.4068 30.9999 48.0293 30.6799 46.5709C29.8349 42.7185 28.8773 38.3523 28.4206 37.0485C28.2505 36.5635 27.9335 35.6744 27.5319 34.5488C26.4034 31.3859 24.698 26.606 23.9388 24.2817L23.8263 23.9372L24.0633 23.6602C25.9222 21.4876 27.3968 19.2579 28.446 17.033C29.865 14.024 30.8886 10.1246 31.5002 7.79476L31.5616 7.56103L32.8554 7.5658C32.9393 7.89492 33.0277 8.25858 33.1214 8.64338C33.6953 11.0015 34.4815 14.2311 35.9558 17.0051C37.3697 19.6659 38.9069 21.8808 39.7326 23.0707C39.9248 23.3476 40.0765 23.5663 40.1815 23.7255L40.3557 23.9899L40.2543 24.2887C39.1376 27.5774 36.8117 34.4725 36.0014 37.03C35.3068 39.2216 34.1315 44.6518 33.2733 48.6168C33.1262 49.2963 32.9874 49.9377 32.8603 50.5191L31.5566 50.5249ZM25.3227 24.2235C26.1227 26.6348 27.7187 31.1079 28.7919 34.1157C29.1942 35.2433 29.512 36.134 29.6831 36.6226C30.1654 38.0002 31.1321 42.4071 31.985 46.2952C32.0579 46.6262 32.1293 46.953 32.1997 47.2736C33.0334 43.429 34.076 38.6947 34.7269 36.641C35.5162 34.1502 37.7325 27.5749 38.8851 24.178C38.8113 24.0708 38.7256 23.9473 38.6295 23.8088C37.7884 22.5967 36.2228 20.3406 34.7725 17.6115C33.5125 15.2409 32.7427 12.6045 32.1817 10.3986C31.5625 12.6206 30.7222 15.3263 29.6576 17.5837C28.6039 19.8177 27.1464 22.0502 25.3227 24.2235Z" fill="white"/>
<path d="M32.0611 25.0972C20.4068 25.0972 4.38451 23.0515 1.29098 22.6414L1.46964 21.3426C4.54835 21.7507 20.492 23.7867 32.061 23.7867C42.4008 23.7867 56.0089 22.1736 62.5486 21.3984L63.0289 21.3414L63.1888 22.6425L62.7088 22.6994C56.1432 23.4777 42.4813 25.0972 32.0611 25.0972Z" fill="white"/>
<path d="M31.963 51.6033L31.4714 51.0135C28.8093 47.8194 22.3058 41.119 18.0022 36.6852L17.1184 35.7746C13.6467 32.1959 7.35002 27.4644 3.18326 24.3334C2.19847 23.5934 1.34798 22.9543 0.674884 22.4358L0 21.9158L0.679055 21.4013C0.891969 21.2401 1.11096 21.0755 1.33826 20.9047C2.9392 19.7012 4.93167 18.2036 8.12694 15.3804C11.5131 12.3886 13.1062 10.5041 14.5117 8.84132C14.9679 8.30175 15.3987 7.79194 15.8555 7.28904L16.0547 7.06963H47.4892L47.6891 7.29935C47.8443 7.47777 48.003 7.66075 48.1652 7.84827C49.944 9.90264 52.1578 12.4593 55.6165 15.3697C59.0685 18.2746 61.1685 19.6579 63.1994 20.9962C63.3927 21.1234 63.5849 21.2502 63.776 21.3766L64.6263 21.9395L63.758 22.4749C60.4878 24.4917 52.2461 29.8864 46.3601 36.4056C43.2267 39.876 39.6928 43.5292 36.8533 46.4646C35.0701 48.308 33.5302 49.8999 32.4834 51.0376L31.963 51.6033ZM2.17821 21.9239C2.7105 22.328 3.32097 22.7867 3.99446 23.2929C8.1942 26.4487 14.5409 31.2178 18.0848 34.8709L18.9684 35.7813C23.0412 39.9774 29.0781 46.1969 32.0106 49.6017C33.0282 48.5156 34.3689 47.1296 35.8848 45.5625C38.7173 42.6344 42.2425 38.9902 45.3607 35.5366C50.8935 29.4085 58.4388 24.2733 62.1831 21.9054C60.2814 20.6509 58.0983 19.1848 54.7474 16.3652C51.2087 13.3874 48.957 10.7869 47.1477 8.69746C47.055 8.59039 46.9635 8.48476 46.8732 8.38055H16.6549C16.2836 8.79773 15.9203 9.22745 15.539 9.67845C14.1753 11.2915 12.4783 13.2991 9.02 16.3547C5.80426 19.1958 3.79315 20.71 2.17821 21.9239Z" fill="white"/>
<path d="M32.2808 50.8868L31.7886 50.3737C31.6779 50.2582 31.5512 50.1251 31.4104 49.9753C30.8887 49.4205 30.0646 48.5221 29.1016 47.3933C27.4021 45.4012 24.9384 42.2976 22.8524 38.8247C21.1805 36.0413 19.7379 32.8962 18.68 29.7296C17.6899 26.7648 17.1446 24.0791 17.1446 22.1669C17.1446 18.2258 18.7394 14.4462 21.5781 11.6594C24.4168 8.87266 28.2669 7.30707 32.2815 7.30707C36.296 7.30707 40.1461 8.87266 42.9848 11.6594C45.8235 14.4462 47.4183 18.2258 47.4183 22.1669C47.4183 24.0489 46.8473 26.7345 45.8106 29.729C44.7067 32.8917 43.2847 35.9386 41.5658 38.8247C39.4798 42.2976 37.0551 45.4014 35.3885 47.3938C34.4437 48.5231 33.6384 49.4213 33.1292 49.9759C32.9945 50.1227 32.873 50.2536 32.7663 50.3676L32.2808 50.8868ZM32.2814 8.65849C24.671 8.65849 18.4795 14.7182 18.4795 22.1667C18.4795 23.9181 19.0149 26.5257 19.9485 29.321C20.962 32.3554 22.4017 35.4941 24.0023 38.1588C26.0421 41.555 28.4578 44.5973 30.1251 46.5516C30.9983 47.5753 31.7547 48.4054 32.2685 48.9551C32.7703 48.405 33.5056 47.5792 34.3568 46.5618C35.9935 44.6053 38.3732 41.5593 40.4158 38.1588C42.0886 35.3501 43.4724 32.3849 44.5466 29.307C45.5378 26.4448 46.0833 23.909 46.0833 22.1667C46.0833 14.7187 39.8917 8.65849 32.2814 8.65849Z" fill="white"/>
<path d="M63.4332 12.949L62.8136 11.2006C62.3829 9.98545 61.8038 9.04457 61.0922 8.4043C60.4978 7.8694 59.6946 7.41049 58.7049 7.0401L57.1097 6.44333L58.6942 5.81962C59.6615 5.43879 60.4699 4.87994 61.097 4.15805C61.7762 3.37012 62.3223 2.48034 62.7144 1.52261L63.3455 0L63.9545 1.53115C64.3298 2.49253 64.8739 3.38191 65.5619 4.15896C66.1998 4.86458 66.9932 5.41811 67.8817 5.77745L69.4299 6.41824L67.8557 6.99512C66.8091 7.37862 66.0371 7.85452 65.561 8.4096C65.0242 9.03523 64.5232 9.97652 64.0717 11.2075L63.4332 12.949ZM60.4766 6.39511C61.024 6.68068 61.5337 7.03105 61.9943 7.43839C62.5445 7.93351 63.0251 8.55966 63.4314 9.30926C63.7764 8.60717 64.147 8.02366 64.5401 7.56546C64.9347 7.10545 65.4613 6.69509 66.1136 6.33844C65.5361 5.97285 65.0131 5.53053 64.5592 5.02408C64.0856 4.49339 63.6718 3.91399 63.325 3.29598C62.9789 3.90444 62.5729 4.47814 62.1128 5.00887C61.642 5.5496 61.0904 6.017 60.4766 6.39511Z" fill="white"/>
</svg>
