<svg width="214" height="52" viewBox="0 0 214 52" fill="none" xmlns="http://www.w3.org/2000/svg">
<path d="M84.1909 18.2422H90.9591V39.5009H84.1909V18.2422Z" fill="white"/>
<path d="M92.3721 18.2438H98.8907V21.1502H99.0153C100.593 18.8665 102.627 17.6211 105.575 17.6211C110.226 17.6211 112.966 20.9427 112.966 25.676V39.5025H106.198V27.0463C106.198 24.804 105.077 23.2677 102.877 23.2677C100.635 23.2677 99.1399 25.1362 99.1399 27.752V39.5025H92.3721V18.2438Z" fill="white"/>
<path d="M91.6344 12.5558C91.6344 10.3135 89.817 8.49609 87.5748 8.49609C85.3325 8.49609 83.5151 10.3135 83.5151 12.5558C83.5151 14.7978 85.3325 16.6153 87.5748 16.6153C89.817 16.6153 91.6344 14.7978 91.6344 12.5558Z" fill="white"/>
<path d="M160.566 17.9353C160.373 17.9179 160.151 17.9102 159.892 17.9102C157.318 17.9102 155.574 19.0312 154.079 21.5639H153.955V18.2424H147.478V39.5008H154.245V29.9511C154.245 25.5262 156.696 23.4759 160.566 23.8336V17.9353Z" fill="white"/>
<path d="M193.778 26.0912C191.08 25.5931 188.671 25.3855 188.671 23.8908C188.671 22.562 189.958 21.9393 191.619 21.9393C193.487 21.9393 194.775 22.5205 195.024 24.4306H201.252C200.92 20.237 197.681 17.6211 191.661 17.6211C186.637 17.6211 182.485 19.9463 182.485 24.4306C182.485 29.4128 186.429 30.4094 190.125 31.0323C192.948 31.5306 195.522 31.7382 195.522 33.648C195.522 35.0183 194.235 35.7655 192.201 35.7655C190.159 35.7655 188.81 34.902 188.396 33.1499H181.947C182.421 37.5201 186.257 40.1669 192.242 40.1669C197.806 40.1669 201.917 37.7586 201.917 33.1084C201.917 27.669 197.515 26.7141 193.778 26.0912Z" fill="white"/>
<path d="M171.065 22.4374C173.265 22.4374 174.843 24.0567 175.092 26.5897H166.705C167.162 24.0567 168.49 22.4374 171.065 22.4374ZM171.438 35.2671C168.656 35.2671 167.078 33.4819 166.663 30.6169H181.943C181.984 26.299 180.739 22.6035 178.206 20.2785C176.379 18.6177 173.971 17.6211 170.94 17.6211C164.463 17.6211 160.02 22.4789 160.02 28.8317C160.02 35.2671 164.338 40.1251 171.355 40.1251C174.054 40.1251 176.213 39.4192 177.999 38.1739C179.867 36.8867 181.112 35.0598 181.569 33.1499H174.967C174.386 34.4785 173.224 35.2671 171.438 35.2671Z" fill="white"/>
<path d="M213.836 34.4875C213.522 34.4999 213.101 34.5181 212.714 34.5181C211.261 34.5181 210.348 34.1027 210.348 32.4419V22.477H213.836V18.242H210.348V11.5156H203.746V18.242H201.668V22.477H203.746V33.8952C203.746 38.4624 206.569 39.7496 210.514 39.7496C212.019 39.7496 213.156 39.6368 213.836 39.5044V34.4875Z" fill="white"/>
<path d="M125.052 34.4972C124.782 34.5076 124.471 34.5181 124.18 34.5181C122.727 34.5181 121.813 34.1028 121.813 32.442V22.477H125.052V18.242H121.813V11.5156H115.211V18.242H113.01V22.477H115.211V33.8952C115.211 38.4628 118.034 39.7496 121.979 39.7496C123.314 39.7496 124.359 39.6606 125.052 39.5484V34.4972Z" fill="white"/>
<path d="M139.794 26.5895C139.545 24.0567 137.967 22.4372 135.766 22.4372C133.192 22.4372 131.863 24.0567 131.407 26.5895H139.794ZM124.722 28.8315C124.722 22.4789 129.165 17.6211 135.642 17.6211C138.673 17.6211 141.081 18.6175 142.908 20.2783C145.441 22.6035 146.686 26.2987 146.645 30.6169H131.365C131.78 33.4817 133.358 35.2671 136.14 35.2671C137.925 35.2671 139.088 34.4783 139.669 33.1497H146.271C145.814 35.0595 144.569 36.8865 142.7 38.1737C140.915 39.419 138.756 40.1249 136.057 40.1249C129.04 40.1249 124.722 35.2671 124.722 28.8315Z" fill="white"/>
<path d="M72.4377 23.7674C75.0951 23.7674 76.5899 22.1895 76.5899 19.8227C76.5899 17.4562 75.0536 16.003 72.4377 16.003H67.2474V23.7674H72.4377ZM60.3955 9.81641H72.1481C75.7602 9.81641 78.4176 10.8128 80.2446 12.5567C82.1547 14.342 83.2342 16.8749 83.2342 19.8643C83.2342 25.5526 79.2896 29.5802 73.1862 29.5802H67.2474V39.5037H60.3955V9.81641Z" fill="white"/>
<path d="M51.1045 25.5522C51.1045 39.6641 39.6642 51.1044 25.5522 51.1044C11.4402 51.1044 0 39.6641 0 25.5522C0 11.44 11.4402 0 25.5522 0C39.6642 0 51.1045 11.44 51.1045 25.5522Z" fill="#FF0000"/>
<path d="M25.5522 0C11.4402 0 0 11.4402 0 25.5522C0 36.3775 6.73514 45.6316 16.2403 49.3545C16.0171 47.333 15.8151 44.2238 16.3289 42.0167C16.7933 40.0226 19.3252 29.3155 19.3252 29.3155C19.3252 29.3155 18.5609 27.7848 18.5609 25.5219C18.5609 21.9688 20.6203 19.3162 23.1845 19.3162C25.3645 19.3162 26.4175 20.9529 26.4175 22.9156C26.4175 25.1079 25.0217 28.3858 24.3014 31.4233C23.6993 33.9666 25.5767 36.0407 28.0852 36.0407C32.6267 36.0407 36.1177 31.252 36.1177 24.3397C36.1177 18.2216 31.7216 13.9441 25.4444 13.9441C18.1739 13.9441 13.9063 19.3973 13.9063 25.033C13.9063 27.2291 14.7523 29.5841 15.808 30.8643C16.0169 31.1173 16.0474 31.3389 15.9852 31.5972C15.7912 32.4042 15.3602 34.1398 15.2756 34.495C15.1642 34.9628 14.9053 35.062 14.421 34.8367C11.2297 33.3512 9.23437 28.6853 9.23437 24.9377C9.23437 16.8773 15.0908 9.47484 26.1178 9.47484C34.9818 9.47484 41.8702 15.7912 41.8702 24.2326C41.8702 33.0389 36.3179 40.1262 28.6109 40.1262C26.0216 40.1262 23.5875 38.7808 22.7543 37.192C22.7543 37.192 21.473 42.0707 21.1624 43.2663C20.5856 45.4858 19.0282 48.2678 17.9866 49.9649C20.3773 50.7052 22.9181 51.1044 25.5522 51.1044C39.6645 51.1044 51.1045 39.6641 51.1045 25.5522C51.1045 11.4402 39.6645 0 25.5522 0Z" fill="white"/>
</svg>
