<svg width="264" height="46" viewBox="0 0 264 46" fill="none" xmlns="http://www.w3.org/2000/svg">
<g clip-path="url(#clip0_7119_611)">
<path d="M79.8068 28.5048C79.8068 31.9932 76.5616 34.5194 71.9943 34.5194H61.2974V12.8672H71.6337C76.0809 12.8672 79.2058 15.273 79.2058 18.6411C79.2058 20.9266 78.004 22.3701 76.201 23.2121C78.1241 23.9338 79.8068 25.8584 79.8068 28.5048ZM65.9848 16.8368V21.528H71.5136C73.1963 21.528 74.278 20.5658 74.278 19.2426C74.278 17.9194 73.0761 16.8368 71.5136 16.8368H65.9848ZM71.9943 30.5498C73.7973 30.5498 75.1194 29.4672 75.1194 27.9034C75.1194 26.3397 73.9174 25.257 71.9943 25.257H65.9848V30.5498H71.9943Z" fill="white"/>
<path d="M97.4743 34.399L90.0228 25.8585H88.8209V34.399H84.0132V12.8672H88.8209V21.1671H90.0228L97.2342 12.8672H102.883L93.8689 23.2121L103.724 34.399H97.4743Z" fill="white"/>
<path d="M103.724 23.6948C103.724 17.1991 108.533 12.5078 115.263 12.5078C121.994 12.5078 126.801 17.1991 126.801 23.6948C126.801 30.1904 121.994 34.8817 115.263 34.8817C108.533 34.8817 103.724 30.1904 103.724 23.6948ZM121.754 23.6948C121.754 19.6049 119.109 16.8383 115.263 16.8383C111.416 16.8383 108.773 19.6049 108.773 23.6948C108.773 27.7846 111.416 30.5513 115.263 30.5513C119.109 30.5513 121.754 27.7846 121.754 23.6948Z" fill="white"/>
<path d="M145.19 12.8672H149.999V34.399H145.19V25.7382H135.576V34.399H130.768V12.8672H135.576V21.4077H145.19V12.8672Z" fill="white"/>
<path d="M160.335 34.399V17.1976H152.883V12.8672H172.474V17.1976H165.022V34.399H160.335Z" fill="white"/>
<path d="M193.146 22.3716V34.4006H189.661L188.699 31.0325C187.618 32.8368 185.334 34.8817 181.849 34.8817C177.521 34.8817 174.396 31.9948 174.396 28.0252C174.396 24.0556 177.521 21.289 183.892 21.289H188.579C188.339 18.5223 186.896 16.5977 184.252 16.5977C182.089 16.5977 180.646 17.8006 179.925 19.1238L175.599 18.402C176.681 14.6731 180.406 12.5078 184.493 12.5078C189.781 12.5078 193.146 16.1165 193.146 22.3716ZM188.459 25.018H184.012C180.406 25.018 179.204 26.2209 179.204 27.7846C179.204 29.5889 180.646 30.7919 183.05 30.7919C186.175 30.7919 188.459 28.5064 188.459 25.018Z" fill="white"/>
<path d="M211.656 34.399L204.205 25.8585H203.002V34.399H198.195V12.8672H203.002V21.1671H204.205L211.416 12.8672H217.065L208.051 23.2121L217.906 34.399H211.656Z" fill="white"/>
<path d="M226.56 34.399V17.1976H219.108V12.8672H238.7V17.1976H231.248V34.399H226.56Z" fill="white"/>
<path d="M262.738 25.018H245.43C245.912 28.3861 248.315 30.5513 251.92 30.5513C254.445 30.5513 256.368 29.4687 257.45 27.9049L261.897 28.6267C260.334 32.7166 256.127 34.8817 251.56 34.8817C245.07 34.8817 240.383 30.1904 240.383 23.6948C240.383 17.1991 245.07 12.5078 251.56 12.5078C258.051 12.5078 262.738 17.1991 262.738 23.4542C262.858 24.0556 262.738 24.5369 262.738 25.018ZM245.791 21.289H257.69C256.848 18.6426 254.685 16.718 251.68 16.718C248.795 16.5977 246.512 18.5223 245.791 21.289Z" fill="white"/>
<path d="M0 22.0564C0 11.6589 0 6.46016 3.22743 3.23008C6.45486 0 11.6493 0 22.0383 0H23.8748C34.2638 0 39.4581 0 42.6856 3.23008C45.913 6.46016 45.913 11.6589 45.913 22.0564V23.8944C45.913 34.2919 45.913 39.4905 42.6856 42.7207C39.4581 45.9507 34.2638 45.9507 23.8748 45.9507H22.0383C11.6493 45.9507 6.45486 45.9507 3.22743 42.7207C0 39.4905 0 34.2919 0 23.8944V22.0564Z" fill="#0077FF"/>
<path d="M24.4297 33.0997C13.9653 33.0997 7.99674 25.9198 7.74805 13.9727H12.9898C13.162 22.7416 17.0262 26.4559 20.0871 27.2218V13.9727H25.0229V21.5354C28.0455 21.2099 31.2208 17.7636 32.2921 13.9727H37.2279C36.4052 18.6443 32.9618 22.0906 30.5131 23.5074C32.9618 24.6562 36.8837 27.6621 38.3759 33.0997H32.9426C31.7757 29.4619 28.8681 26.6474 25.0229 26.2645V33.0997H24.4297Z" fill="white"/>
</g>
<defs>
<clipPath id="clip0_7119_611">
<rect width="264" height="45.9507" fill="white"/>
</clipPath>
</defs>
</svg>
