<svg width="264" height="42" viewBox="0 0 264 42" fill="none" xmlns="http://www.w3.org/2000/svg">
<g clip-path="url(#clip0_7163_10103)">
<path d="M57.3937 34.7848H62.2055V7.13281H55.2054C48.1557 7.13281 44.4629 10.7509 44.4629 16.0849C44.4629 20.3371 46.4896 22.8487 50.1077 25.4348L43.8164 34.7848H49.0385L56.0385 24.3158L53.614 22.6871C50.6672 20.6977 49.2374 19.1435 49.2374 15.7989C49.2374 12.8522 51.3013 10.8628 55.2427 10.8628H57.3937V34.7848ZM150.209 35.1827C152.398 35.1827 153.952 34.7848 155.108 33.9393V30.085C153.915 30.918 152.485 31.4402 150.495 31.4402C147.113 31.4402 145.721 28.8167 145.721 24.6764C145.721 20.3371 147.424 18.1115 150.533 18.1115C152.36 18.1115 154.151 18.7456 155.108 19.3425V15.3265C154.113 14.7669 152.36 14.3691 150.01 14.3691C143.968 14.3691 140.822 18.7083 140.822 24.7883C140.822 31.4775 143.881 35.1827 150.209 35.1827ZM120.605 33.4295V29.5627C119.138 30.5574 116.676 31.4402 114.364 31.4402C110.907 31.4402 109.589 29.8114 109.39 26.4668H120.804V23.9553C120.804 16.9925 117.746 14.3691 113.009 14.3691C107.239 14.3691 104.492 18.783 104.492 24.838C104.492 31.8008 107.923 35.1827 113.966 35.1827C116.987 35.1827 119.213 34.3869 120.605 33.4295ZM135.724 34.7848H141.096L133.499 24.1542L140.188 14.7669H135.414L128.724 24.1542V14.7669H123.987V34.7848H128.724V25.1116L135.724 34.7848ZM103.348 31.0423H101.234V14.7669H87.4329V16.4828C87.4329 21.3691 87.1097 27.6977 85.4436 31.0423H83.964V39.3603H88.3406V34.7848H98.9712V39.3603H103.348V31.0423ZM77.2375 14.7669V22.6871H70.9213V14.7669H66.1842V34.7848H70.9213V26.4295H77.2375V34.7848H81.9746V14.7669H77.2375ZM112.934 18.1115C115.284 18.1115 115.993 20.0636 115.993 22.5627V22.9606H109.39C109.515 19.7776 110.659 18.1115 112.934 18.1115ZM96.4969 31.0423H89.8201C91.1257 28.021 91.4862 22.5627 91.4862 19.1062V18.5094H96.4969V31.0423ZM179.813 34.7848H185.421L175.598 20.2625L184.513 7.13281H179.614L171.06 19.8647V7.13281H166.249V34.7848H171.06V21.8043L179.813 34.7848ZM201.572 21.1329C201.572 16.2838 199.11 14.4437 194.099 14.4437C190.954 14.4437 188.492 15.4384 187.05 16.2838V20.2128C188.33 19.2679 191.115 18.2234 193.54 18.2234C195.803 18.2234 196.847 19.0192 196.847 21.1702V22.2892H196.089C188.84 22.2892 185.62 24.6764 185.62 28.7297C185.62 32.7954 188.094 35.0583 191.75 35.0583C194.535 35.0583 195.728 34.1383 196.648 33.1933H196.847C196.885 33.7031 197.046 34.3869 197.195 34.7848H201.821C201.659 33.1436 201.572 31.5148 201.572 29.886V21.1329ZM196.847 30.0104C196.25 30.8807 195.131 31.6018 193.465 31.6018C191.476 31.6018 190.481 30.4828 190.481 28.767C190.481 26.5041 192.11 25.6711 196.163 25.6711H196.847V30.0104ZM209.778 14.7669H205.401V40.5539H210.126V32.4349C211.32 34.2253 213.073 35.1827 215.1 35.1827C219.725 35.1827 222.908 31.4775 222.908 24.751C222.908 18.0742 219.799 14.3691 215.348 14.3691C213.11 14.3691 211.282 15.4011 210.014 17.3531L209.778 14.7669ZM213.906 31.4402C211.407 31.4402 210.126 29.4135 210.126 24.7883C210.126 20.1382 211.481 18.1115 214.155 18.1115C216.741 18.1115 218.009 20.1382 218.009 24.751C218.009 29.4135 216.654 31.4402 213.906 31.4402ZM239.569 18.5094V14.7669H223.703V18.5094H229.274V34.7848H233.998V18.5094H239.569ZM242.354 14.7669V34.7848H249.565C254.215 34.7848 257.522 32.3976 257.522 27.6977C257.522 23.2466 254.576 20.8966 249.64 20.8966H247.091V14.7669H242.354ZM259.263 14.7669V34.7848H264V14.7669H259.263ZM249.279 31.0423H247.091V24.6391H249.403C251.43 24.6391 252.624 25.5467 252.624 27.8594C252.624 30.1596 251.306 31.0423 249.279 31.0423Z" fill="white"/>
<path fill-rule="evenodd" clip-rule="evenodd" d="M1.52217e-05 16.767C1.52217e-05 7.50722 7.50723 0 16.7683 0C26.028 0 33.5353 7.50722 33.5353 16.767C33.5353 21.3969 31.6594 25.5871 28.6276 28.6214C27.8354 29.4136 26.7629 30.2979 25.6033 31.2558C22.3199 33.965 18.3352 37.2534 18.0251 40.6613C17.9628 41.3526 17.4621 41.9194 16.767 41.9194C16.0732 41.9194 15.5725 41.3526 15.5102 40.6613C15.2 37.2534 11.2154 33.965 7.93198 31.2558C6.77357 30.2979 5.70111 29.4136 4.90891 28.6214C1.76065 25.4804 -0.00598246 21.2142 1.52217e-05 16.767ZM22.6375 16.7682C22.6847 20.0094 20.0955 22.6752 16.8544 22.7224C13.6132 22.7696 10.9475 20.1804 10.9002 16.9392C10.8994 16.8822 10.8994 16.8252 10.9002 16.7682C10.9475 13.5271 13.6132 10.9379 16.8544 10.9851C20.029 11.0313 22.5913 13.5936 22.6375 16.7682Z" fill="url(#paint0_linear_7163_10103)"/>
<path fill-rule="evenodd" clip-rule="evenodd" d="M1.52217e-05 16.767C1.52217e-05 7.50722 7.50723 0 16.7683 0C26.028 0 33.5353 7.50722 33.5353 16.767C33.5353 21.3969 31.6594 25.5871 28.6276 28.6214C27.8354 29.4136 26.7629 30.2979 25.6033 31.2558C22.3199 33.965 18.3352 37.2534 18.0251 40.6613C17.9628 41.3526 17.4621 41.9194 16.767 41.9194C16.0732 41.9194 15.5725 41.3526 15.5102 40.6613C15.2 37.2534 11.2154 33.965 7.93198 31.2558C6.77357 30.2979 5.70111 29.4136 4.90891 28.6214C1.76065 25.4804 -0.00598246 21.2142 1.52217e-05 16.767ZM22.6375 16.7682C22.6847 20.0094 20.0955 22.6752 16.8544 22.7224C13.6132 22.7696 10.9475 20.1804 10.9002 16.9392C10.8994 16.8822 10.8994 16.8252 10.9002 16.7682C10.9475 13.5271 13.6132 10.9379 16.8544 10.9851C20.029 11.0313 22.5913 13.5936 22.6375 16.7682Z" fill="#FF3333"/>
</g>
<defs>
<linearGradient id="paint0_linear_7163_10103" x1="16.7676" y1="0" x2="16.7676" y2="41.9194" gradientUnits="userSpaceOnUse">
<stop stop-color="#FF6122"/>
<stop offset="1" stop-color="#F22411"/>
</linearGradient>
<clipPath id="clip0_7163_10103">
<rect width="264" height="41.9194" fill="white"/>
</clipPath>
</defs>
</svg>
