<svg width="212" height="47" viewBox="0 0 212 47" fill="none" xmlns="http://www.w3.org/2000/svg">
<mask id="mask0_7119_610" style="mask-type:luminance" maskUnits="userSpaceOnUse" x="0" y="0" width="212" height="47">
<path d="M211.993 0H0V46.7504H211.993V0Z" fill="white"/>
</mask>
<g mask="url(#mask0_7119_610)">
<path d="M35.2971 46.7079L21.4275 46.454C16.9367 46.3657 12.4349 46.5424 8.03241 45.6265C1.33489 44.2584 0.860433 37.5497 0.363908 31.9225C-0.320189 24.0113 -0.055377 15.9566 1.23558 8.11149C1.96382 3.709 4.83261 1.08293 9.26821 0.796052C24.2411 -0.241129 39.3134 -0.119757 54.2531 0.365734C55.8309 0.409867 57.4198 0.652612 58.9755 0.928459C66.6553 2.27459 66.8429 9.8769 67.3393 16.2765C67.8357 22.7423 67.6263 29.2413 66.6773 35.6632C65.916 40.9813 64.4596 45.4389 58.3136 45.8693C50.6121 46.432 43.0869 46.8845 35.3633 46.741C35.3633 46.7079 35.3192 46.7079 35.2971 46.7079ZM27.143 33.2467C32.9469 29.9143 38.6404 26.6373 44.4112 23.3272C38.5963 19.9949 32.9138 16.7179 27.143 13.4077V33.2467Z" fill="#FF0000"/>
<path d="M178.947 40.6628C178.682 41.7439 178.45 42.5936 178.218 43.4984H172.79V1.625H179.123V17.0724C179.454 16.6531 179.62 16.4766 179.763 16.289C180.844 14.7994 182.246 13.8284 184.055 13.4533C186.935 12.8905 189.396 14.1594 190.267 16.9289C190.83 18.6502 191.194 20.4929 191.238 22.2914C191.327 26.9146 191.26 31.5267 191.095 36.1498C191.029 37.5624 190.598 39.0077 190.058 40.3317C188.281 44.7012 182.477 45.3632 179.597 41.5787C179.421 41.3469 179.256 41.093 178.947 40.6628ZM179.256 29.1434V36.8007C179.256 38.0477 179.918 38.8091 181.164 39.0961C182.389 39.3827 183.382 38.9084 183.879 37.7718C184.088 37.2975 184.298 36.8007 184.309 36.3043C184.43 31.626 184.541 26.9477 184.574 22.2583C184.574 21.3866 184.364 20.4818 184.099 19.6322C183.603 18.0985 182.235 17.6461 180.889 18.5399C179.873 19.224 179.256 20.195 179.256 21.4859V29.1434ZM162.043 14.0491H168.674V43.5205H163.499C163.311 42.4059 163.124 41.2586 162.903 39.9126C162.55 40.431 162.341 40.7622 162.12 41.093C160.399 43.5757 157.96 44.4253 155.08 43.973C152.62 43.5757 151.141 41.6777 150.81 38.5662C150.711 37.6393 150.667 36.7017 150.667 35.7748C150.645 28.8786 150.667 21.9604 150.667 15.0642V14.027H157.375V15.2297C157.375 21.8942 157.353 28.5476 157.398 35.2119C157.398 36.1608 157.497 37.1429 157.662 38.0919C157.85 39.0629 158.556 39.4158 159.505 39.3496C161.039 39.2282 162.098 38.0919 162.098 36.5693V15.3511C162.043 14.9208 162.043 14.5236 162.043 14.0491ZM116.385 14.027H123.049V15.2739C123.049 21.9052 123.027 28.5255 123.071 35.1349C123.071 36.0836 123.159 37.0657 123.358 37.9926C123.612 39.085 124.252 39.4379 125.344 39.2944C126.856 39.085 127.771 38.0367 127.782 36.503V15.3952V14.0712H134.414V43.5205H129.261C129.074 42.428 128.886 41.3027 128.643 39.8795C128.312 40.3759 128.125 40.6628 127.937 40.9606C126.216 43.4873 123.799 44.4142 120.853 43.962C118.492 43.6088 117.047 41.8654 116.605 39.0077C116.484 38.114 116.396 37.2312 116.396 36.3375C116.374 29.1765 116.374 21.9824 116.374 14.8215L116.385 14.027ZM112.964 29.7613C112.942 30.7544 112.876 31.7474 112.821 32.7403C112.567 35.7196 112.445 39.9457 110.04 42.1192C108.506 43.4873 106.565 43.9841 104.556 44.05C103.662 44.0721 102.758 44.072 101.864 43.951C97.6382 43.3107 95.674 41.4462 94.9679 36.8007C94.1624 31.4384 94.0962 25.9877 95.0562 20.6253C96.0493 15.0753 99.4699 13.1112 104.788 13.4753C109.753 13.8284 111.971 17.0834 112.556 21.7176C112.876 24.3768 113.03 27.069 112.964 29.7613ZM106.211 28.7462C106.211 26.8594 106.256 24.9616 106.189 23.0748C106.145 21.9824 106.002 20.8791 105.77 19.7977C105.505 18.5509 104.711 17.9551 103.718 17.9772C102.747 17.9992 102.063 18.595 101.71 19.7536C101.588 20.1839 101.456 20.6253 101.456 21.0556C101.456 24.0127 101.434 26.9808 101.412 29.9378C101.39 32.6964 101.037 35.5872 101.908 38.2244C102.173 39.0298 102.857 39.471 103.751 39.471C104.623 39.471 105.196 39.0409 105.516 38.2685C105.77 37.6724 105.991 37.0215 105.991 36.3816C106.068 33.8438 106.211 31.295 106.211 28.7462ZM85.236 23.1962C85.8207 20.3384 86.3727 17.5468 86.9794 14.7442C87.7408 11.1803 88.5904 7.61639 89.3407 4.04141C89.5283 3.16974 89.8812 2.9601 90.7088 2.98216C92.4853 3.04837 94.2949 3.00423 96.1928 3.00423C95.5747 5.27722 94.9679 7.43984 94.3722 9.56936C92.4853 16.2559 90.5987 22.9644 88.7339 29.673C88.5904 30.1916 88.5241 30.7544 88.5241 31.306C88.5021 34.9694 88.5241 38.6214 88.5241 42.2848V43.4763H82.0473C82.0252 43.1455 81.981 42.8143 81.981 42.4832C81.981 40.409 81.8155 38.3237 82.0031 36.2712C82.4778 31.3391 80.911 26.8042 79.6419 22.2142C77.9647 16.1455 76.2655 10.0548 74.5883 3.98626C74.5003 3.69936 74.4672 3.39041 74.3789 3.03733H80.9879C82.3784 9.73486 83.7796 16.4324 85.236 23.1962ZM211.96 30.8868H200.794C200.915 33.1266 200.959 35.256 201.191 37.3637C201.356 38.8311 202.162 39.46 203.431 39.471C204.755 39.4931 205.527 38.8311 205.836 37.3747C205.935 36.9001 206.001 36.4258 206.046 35.9404C206.09 35.5099 206.112 35.0466 206.145 34.4285C208.032 34.5278 209.875 34.6382 211.695 34.7155C212.754 37.8601 210.845 41.8985 207.634 43.1455C205.108 44.1383 202.515 44.1383 199.933 43.377C198.024 42.8143 196.601 41.6008 195.961 39.736C195.365 37.9926 194.802 36.1719 194.681 34.3512C194.35 29.8606 194.228 25.3257 194.912 20.8239C195.034 20.0736 195.244 19.3564 195.475 18.6282C196.402 15.6269 198.421 13.7843 201.544 13.4753C203.243 13.3098 204.998 13.376 206.675 13.6629C209.389 14.1374 210.834 16.0904 211.463 18.6502C211.75 19.8529 211.96 21.0887 212.004 22.3134C212.015 25.1271 211.96 27.9187 211.96 30.8868ZM205.615 27.0139C205.615 24.7961 205.637 22.7107 205.593 20.6142C205.593 20.1177 205.406 19.5991 205.218 19.1247C204.843 18.1978 204.06 17.9441 203.122 17.9441C202.184 17.9441 201.588 18.4185 201.356 19.2681C200.65 21.8169 200.882 24.4209 200.904 27.0359C202.592 27.0139 204.126 27.0139 205.615 27.0139Z" fill="white"/>
<path d="M139.534 8.40815H132.969V3.08984H152.565V8.37507H146.044V43.4739H139.545L139.534 8.40815Z" fill="white"/>
</g>
</svg>
