<svg width="214" height="63" viewBox="0 0 214 63" fill="none" xmlns="http://www.w3.org/2000/svg">
<g clip-path="url(#clip0_7119_583)">
<mask id="mask0_7119_583" style="mask-type:luminance" maskUnits="userSpaceOnUse" x="0" y="0" width="214" height="63">
<path d="M213.044 0H0V62.3443H213.044V0Z" fill="white"/>
</mask>
<g mask="url(#mask0_7119_583)">
<path d="M181.98 47.5034H189.396V33.9542H205.628V47.5034H213.045V14.8398H205.628V27.7732H189.396V14.8398H181.98V47.5034Z" fill="white"/>
<path d="M178.374 32.6702C178.374 20.8202 172.193 13.5039 162.454 13.5039C152.715 13.5039 145.398 21.6438 145.398 31.0712C145.398 40.9622 152.355 48.6903 163.277 48.6903C168.275 48.6903 172.912 47.0431 176.775 43.7448L173.528 38.9551C170.746 40.9659 167.295 42.5093 163.533 42.5093C157.968 42.5093 154.002 39.3149 152.867 34.1097H178.37V32.6665L178.374 32.6702ZM152.819 28.2886C153.798 23.1872 157.712 19.7369 162.454 19.7369C167.195 19.7369 170.286 22.9832 171.109 28.2886H152.819Z" fill="white"/>
<path d="M128.343 48.6918C137.463 48.6918 143.132 44.3658 143.132 38.5929C143.132 35.0386 141.121 31.9481 136.175 30.9687L135.867 30.9167V30.6088L136.175 30.5569C140.865 29.6293 142.82 26.7429 142.82 23.3444C142.82 18.091 137.926 13.6055 129.423 13.6055C123.654 13.6055 118.037 15.7684 113.399 19.2225L116.337 24.272C119.584 22.0051 124.169 19.7902 128.907 19.7902C133.233 19.7902 135.604 21.6452 135.604 24.1161C135.604 26.383 133.493 28.0822 128.959 28.2381L121.127 28.5979V33.5435L128.959 33.9034C133.749 34.1594 135.604 35.8623 135.604 37.9734C135.604 40.448 133.029 42.611 127.824 42.611C122.618 42.611 118.344 40.4999 114.686 37.9734V44.8778C116.901 46.1652 121.743 48.6918 128.339 48.6918H128.343Z" fill="white"/>
<path d="M108.201 40.1352V14.8398H82.2861L80.3791 31.6873C79.5554 38.5918 77.4926 40.1352 73.7825 40.1352H73.4746V54.9236H80.8948V47.5034H105.111V54.9236H112.531V40.1352H108.205H108.201ZM100.833 41.3224H82.7498V41.0145C84.9647 40.1909 86.8717 38.7996 87.4394 33.3903L88.7268 20.9726H100.833V41.3224Z" fill="white"/>
<path d="M31.046 62.3443H31.2946C43.6751 62.3443 50.8616 61.0977 55.9518 56.1559C61.1422 50.9135 62.3406 43.6789 62.3406 31.3465V30.9978C62.3406 18.6692 61.1422 11.4827 55.9518 6.18843C50.8653 1.24659 43.6269 0 31.2983 0H31.0497C18.6692 0 11.479 1.24659 6.38877 6.18843C1.19836 11.4308 0 18.6692 0 30.9978V31.3465C0 43.6751 1.19836 50.8616 6.38877 56.1559C11.4308 61.0977 18.6692 62.3443 31.046 62.3443Z" fill="white"/>
<path d="M54.9244 30.7027C54.9244 30.4652 54.7314 30.2686 54.494 30.2575C45.9719 29.9347 40.7852 28.8476 37.1568 25.2192C33.5209 21.5833 32.4375 16.3929 32.1147 7.85225C32.1073 7.6148 31.9107 7.42188 31.6695 7.42188H30.6752C30.4378 7.42188 30.2412 7.6148 30.23 7.85225C29.9072 16.3892 28.8239 21.5833 25.188 25.2192C21.5558 28.8513 16.3728 29.9347 7.85078 30.2575C7.61333 30.2649 7.42041 30.4615 7.42041 30.7027V31.697C7.42041 31.9344 7.61333 32.1311 7.85078 32.1422C16.3728 32.465 21.5596 33.552 25.188 37.1805C28.8165 40.8089 29.8998 45.9845 30.2263 54.4917C30.2337 54.7292 30.4304 54.9221 30.6715 54.9221H31.6695C31.907 54.9221 32.1036 54.7292 32.1147 54.4917C32.4412 45.9845 33.5246 40.8089 37.153 37.1805C40.7852 33.5483 45.9682 32.465 54.4903 32.1422C54.7277 32.1348 54.9207 31.9381 54.9207 31.697V30.7027H54.9244Z" fill="black"/>
</g>
</g>
<defs>
<clipPath id="clip0_7119_583">
<rect width="213.33" height="62.7005" fill="white"/>
</clipPath>
</defs>
</svg>
