<svg width="236" height="67" viewBox="0 0 236 67" fill="none" xmlns="http://www.w3.org/2000/svg">
<g clip-path="url(#clip0_7119_595)">
<mask id="mask0_7119_595" style="mask-type:luminance" maskUnits="userSpaceOnUse" x="12" y="10" width="49" height="48">
<path fill-rule="evenodd" clip-rule="evenodd" d="M24.7106 10.6425L26.73 10.6211L47.7355 10.6297C48.0545 10.6325 48.2533 10.6368 48.4506 10.6425C49.4918 10.6697 50.543 10.7298 51.5728 10.9143C52.6043 11.0883 53.6044 11.4141 54.5405 11.8811C55.473 12.3502 56.3282 12.9623 57.0676 13.696C57.8074 14.4263 58.4267 15.2691 58.9026 16.1932C59.3889 17.1328 59.6935 18.0954 59.8809 19.128C60.0668 20.1463 60.1283 21.1846 60.1555 22.2144C60.1698 22.6864 60.1755 23.1583 60.1769 23.6317L60.1798 24.4741V43.1198C60.1798 43.6804 60.1798 44.2425 60.1769 44.8046C60.1741 45.2765 60.1698 45.7485 60.1555 46.2205C60.1269 47.2502 60.0668 48.29 59.8809 49.3069C59.7044 50.3288 59.3746 51.3182 58.9026 52.2417C58.4265 53.166 57.8072 54.0093 57.0676 54.7402C56.3254 55.4737 55.4726 56.0861 54.5405 56.5552C53.6044 57.0222 52.6043 57.348 51.5728 57.522C50.543 57.7051 49.4918 57.7651 48.4506 57.7937L45.3127 57.818L25.4242 57.8066C25.1863 57.804 24.9484 57.7992 24.7106 57.7923C23.6694 57.7666 22.6182 57.7051 21.5884 57.522C20.5574 57.3479 19.5578 57.0221 18.6222 56.5552C16.7494 55.6127 15.2218 54.1031 14.2572 52.2417C13.7859 51.3179 13.4561 50.3286 13.2789 49.3069C13.093 48.29 13.0329 47.2502 13.0057 46.2219C12.9914 45.7499 12.9871 45.2765 12.9843 44.8046L12.98 43.9593V25.3165C12.98 24.7559 12.98 24.1938 12.9843 23.6331C12.9871 23.1612 12.9929 22.6892 13.0057 22.2158C13.0343 21.1861 13.0944 20.1477 13.2789 19.1294C13.456 18.1076 13.7858 17.1183 14.2572 16.1946C15.2204 14.3326 16.7477 12.8228 18.6207 11.8811C19.5568 11.4141 20.5569 11.0883 21.5884 10.9143C22.6182 10.7312 23.6694 10.6712 24.7106 10.6425Z" fill="white"/>
</mask>
<g mask="url(#mask0_7119_595)">
<path d="M8.8501 5.90234H64.8999V61.9521H8.8501V5.90234Z" fill="#19AA1E"/>
<path fill-rule="evenodd" clip-rule="evenodd" d="M8.8501 5.90234H64.8999V24.2918L8.8501 15.5352V5.90234Z" fill="#FFB919"/>
<path fill-rule="evenodd" clip-rule="evenodd" d="M8.8501 55.8151L64.8999 47.0586V61.9461H8.8501V55.8151Z" fill="#82D714"/>
<path fill-rule="evenodd" clip-rule="evenodd" d="M8.8501 14.4258L28.4148 17.4828C30.8502 15.9407 33.7475 15.0949 36.8741 15.0949C41.2049 15.0949 45.0974 16.7168 47.9302 19.5632C48.2869 19.9233 48.6231 20.2986 48.9407 20.6892L64.8999 23.1823V25.3987L50.5609 23.1569C51.6341 25.2085 52.1963 27.4888 52.1998 29.8041C52.1998 32.8067 51.529 35.8009 50.1397 38.8069L50.099 38.8986L49.508 40.1622H48.1153C45.235 40.1622 43.3261 41.0232 42.0761 42.55C41.0962 43.7473 40.5289 45.3641 40.3387 47.127L40.3319 47.1813L40.3047 47.4633L40.2929 47.5855L40.2691 47.825C40.1961 48.613 40.1485 49.2805 40.123 49.8239L64.8999 45.9518V48.1681L8.8501 56.9263V54.71L33.6541 50.8344L33.6439 50.3368L33.6405 50.1976L33.6371 50.1245L33.6337 50.0141C33.6117 49.4112 33.5556 48.6385 33.4673 47.701L33.4503 47.5227L33.4197 47.2153C33.2431 45.4423 32.6844 43.8068 31.7044 42.5908C30.4698 41.0538 28.5795 40.1792 25.7212 40.1622H24.2403L23.651 38.8986C22.2346 35.862 21.5485 32.8373 21.5485 29.8041C21.5485 25.9897 23.0956 22.3009 25.8197 19.5632L26.0575 19.3305L8.8501 16.6404V14.4258Z" fill="white"/>
<path fill-rule="evenodd" clip-rule="evenodd" d="M36.8738 17.2852C44.6997 17.2852 50.0104 23.3074 50.0104 29.8052C50.0104 32.4138 49.4414 35.1277 48.1133 37.9741C40.4148 37.9741 38.5144 43.4869 38.1544 46.9583L38.1306 47.1875C38.01 48.4273 37.9387 49.4208 37.92 50.1681L35.8345 50.4942V50.4262C35.8054 49.3225 35.7306 48.2205 35.6103 47.123L35.6052 47.0619C35.2723 43.599 33.4127 37.9741 25.636 37.9741C24.3062 35.1277 23.7373 32.4138 23.7373 29.8052C23.7373 23.3074 29.0497 17.2852 36.8738 17.2852Z" fill="#0073FA"/>
</g>
<path fill-rule="evenodd" clip-rule="evenodd" d="M98.563 12.1016C88.3081 12.1016 80.619 18.1992 80.6835 28.7889H90.2142C90.0831 24.553 92.8425 20.4442 98.563 20.4442C102.9 20.4442 105.661 23.2681 105.661 26.8626C105.661 30.5861 102.635 32.6395 97.7743 34.9511C91.3983 37.9667 87.586 39.3786 80.6835 41.6236V53.8189H116.176V45.4742H93.5666C96.8605 44.1329 100.068 42.6604 102.966 41.3029C110.655 37.7105 115.19 33.6662 115.19 26.4148C115.19 17.6849 108.487 12.1016 98.563 12.1016ZM130.637 21.0857H149.041V12.743H121.435V53.8189H130.637V21.0857ZM163.501 12.743H154.299V53.8189H163.434L180.59 27.5686V53.8189H189.792V12.743H180.59L163.501 38.9934V12.743ZM235.999 38.4144H226.468C225.022 42.9731 220.619 46.1177 215.427 46.1177C207.867 46.1177 202.937 39.7639 202.937 33.281C202.937 26.7981 207.736 20.4442 215.689 20.4442C220.948 20.4442 225.022 23.5909 226.468 28.1475H235.999C234.619 18.9697 227.193 12.1016 215.427 12.1016C202.413 12.1016 193.735 21.0231 193.735 33.281C193.735 45.5388 202.413 54.4604 215.427 54.4604C227.193 54.4604 234.619 47.7233 235.999 38.4144Z" fill="white"/>
</g>
<defs>
<clipPath id="clip0_7119_595">
<rect width="235.999" height="66.5638" fill="white"/>
</clipPath>
</defs>
</svg>
